<?xml version="1.0" standalone="no"?><!DOCTYPE svg PUBLIC "-//W3C//DTD SVG 1.1//EN" "http://www.w3.org/Graphics/SVG/1.1/DTD/svg11.dtd"><svg t="1698063280451" class="icon" viewBox="0 0 1024 1024" version="1.1" xmlns="http://www.w3.org/2000/svg" p-id="5213" xmlns:xlink="http://www.w3.org/1999/xlink" width="200" height="200"><path d="M911.825455 293.701818L644.654545 79.127273a195.490909 195.490909 0 0 0-274.618181 0l-260.654546 215.04a93.090909 93.090909 0 0 0-33.512727 71.68V791.272727a180.130909 180.130909 0 0 0 176.407273 183.854546h517.585454A180.130909 180.130909 0 0 0 946.269091 791.272727V366.312727a93.090909 93.090909 0 0 0-34.443636-72.610909zM876.450909 791.272727a110.312727 110.312727 0 0 1-106.589091 114.036364H251.810909A110.312727 110.312727 0 0 1 145.221818 791.272727V365.847273a23.272727 23.272727 0 0 1 8.378182-18.152728L415.650909 130.327273h2.327273a123.345455 123.345455 0 0 1 87.970909-37.236364 130.792727 130.792727 0 0 1 93.090909 38.632727l269.963636 217.367273a23.272727 23.272727 0 0 1 8.843637 18.152727z" p-id="5214"></path><path d="M561.803636 484.072727H459.869091a111.243636 111.243636 0 0 0-111.243636 111.243637v208.058181a34.909091 34.909091 0 1 0 69.818181 0v-208.058181a41.425455 41.425455 0 0 1 41.425455-41.425455h101.934545a41.425455 41.425455 0 0 1 41.425455 41.425455v208.058181a34.909091 34.909091 0 0 0 69.818182 0v-208.058181a111.243636 111.243636 0 0 0-111.243637-111.243637z" p-id="5215"></path></svg>